<svg width="1508" height="1509" viewBox="0 0 1508 1509" fill="none" xmlns="http://www.w3.org/2000/svg">
<path d="M1127.63 631.489C1008.81 548.176 844.93 571.657 753.687 682.096C662.468 571.657 498.56 548.2 379.74 631.489C286.443 696.9 241.83 814.034 268.731 922.966C308.345 1083.42 422.476 1314.58 741.234 1504.58C745.068 1506.87 749.377 1508.01 753.687 1508.01C757.996 1508.01 762.305 1506.87 766.14 1504.58C1084.9 1314.58 1199.03 1083.42 1238.64 922.966C1265.54 814.034 1220.93 696.9 1127.63 631.489ZM1191.44 911.308C1154.56 1060.7 1048.57 1275.4 753.687 1455.3C458.803 1275.4 352.816 1060.7 315.931 911.308C293.815 821.727 330.676 725.272 407.661 671.305C447.406 643.443 493.253 630.052 538.732 630.052C610.186 630.052 680.749 663.09 725.362 724.928L733.968 736.859C743.109 749.537 764.264 749.537 773.405 736.859L782.012 724.928C855.032 623.737 997.548 599.685 1099.71 671.305C1176.7 725.272 1213.56 821.727 1191.44 911.308Z" fill="black"/>
<path d="M1206.9 207.592C1199.87 199.249 1176.11 189.626 1167.08 195.777C1158.06 201.928 1152.02 227.759 1157.23 237.349C1197.85 312.178 1174.93 392.608 1126.33 443.944C1097.46 474.448 1067.1 483.165 1051.99 476.038C1038.5 469.648 1033.07 447.861 1037.09 416.245C1045.64 348.982 1032.56 294.01 998.21 252.856C944.542 188.574 855.597 178.023 851.981 177.836C844.406 177.389 829.931 179.269 825.723 185.275C821.515 191.28 819.364 200.839 822.222 207.592C841.767 253.754 834.08 311.163 805.444 342.561C782.896 367.278 755.59 379.143 736.045 372.951C713.747 365.845 698.202 335.475 692.28 287.433C668.672 96.0436 471.688 66.0484 370.805 76.9577C363.698 77.7265 357.443 82.0174 354.17 88.376C350.897 94.7346 351.042 102.319 354.554 108.553C355.863 110.88 485.206 342.852 439.227 458.511C428.431 485.68 408.554 503.436 378.453 512.787C331.144 527.467 297.853 525.982 279.534 508.309C248.653 478.563 260.01 405.097 266.982 379.299C269.434 370.239 265.663 360.618 257.683 355.663C249.703 350.707 239.437 351.538 232.382 357.751C226.729 362.728 94 483.487 94 816.022C94 962.236 180.792 1068.35 344.995 1122.9C355.856 1126.6 368.213 1120.67 371.907 1109.42C375.606 1098.26 369.569 1086.22 358.42 1082.51C211.206 1033.6 136.56 943.95 136.56 816.021C136.56 629.058 180.865 513.264 216.495 450.354C217.773 481.856 225.867 515.654 249.932 538.885C280.303 568.205 327.788 573.099 391.088 553.431C433.658 540.194 463.167 513.534 478.795 474.188C521.729 366.114 443.093 188.74 407.557 117.924C476.135 118.142 630.747 136.22 650.031 292.648C660.391 376.587 695.501 404.702 723.129 413.492C759.029 424.931 802.669 408.754 836.885 371.236C865.854 339.485 891.862 286.84 883.726 231.183C908.009 237.666 941.726 251.443 965.76 280.399C992.058 312.077 1001.85 355.984 994.864 410.884C985.98 480.796 1015.44 505.815 1033.78 514.501C1069.21 531.29 1117.63 515.041 1157.23 473.201C1196.42 431.809 1225.5 366.613 1218.37 286.716C1294.43 404.858 1395.71 602.148 1364.98 778.795C1346.43 885.373 1281.36 971.816 1171.57 1035.71C1161.4 1041.62 1157.96 1054.65 1163.88 1064.8C1169.79 1074.98 1182.82 1078.41 1192.97 1072.49C1314.17 1001.96 1386.15 905.56 1406.92 785.974C1457.75 493.337 1218.49 221.359 1206.9 207.592Z" fill="#0553AE"/>
</svg>
