<svg width="1276" height="1480" viewBox="0 0 1276 1480" fill="none" xmlns="http://www.w3.org/2000/svg">
<g clip-path="url(#clip0_887_13680)">
<path fill-rule="evenodd" clip-rule="evenodd" d="M582.856 1188.93C585.465 1201.74 598.021 1210.07 610.887 1207.46L610.765 1207.46L837.442 1161.08C845.273 1159.46 853.354 1156.91 861.185 1153.49C864.417 1153.37 867.649 1152.62 870.757 1151.13L1180.09 1000.99C1188.11 997.135 1195.69 995.767 1202.84 996.637C1209.87 997.508 1216.95 1000.55 1223.97 1005.4C1227.46 1010.94 1228.82 1017.53 1228.08 1023.81C1227.33 1029.9 1224.47 1035.74 1219.56 1039.53C1142.49 1101.52 1045.11 1166.59 951.954 1228.84C907.105 1258.81 863.233 1288.13 823.077 1316.13C805.673 1328.26 778.138 1339.76 747.869 1347.4C720.086 1354.43 690.502 1358.04 665.018 1355.86L664.396 1355.8C633.195 1353.12 608.083 1350.7 586.827 1348.59L486.354 1336.32C485.263 1336.2 484.382 1336.2 483.685 1336.31C472.85 1336.11 436.688 1334.6 397.458 1332.95C342.777 1330.66 282.136 1328.11 275.811 1328.56L253.995 1330.43L222.544 1104.5C256.666 1097.42 282.647 1086.91 307.447 1076.84L308.215 1076.53C332.922 1066.5 356.596 1056.9 385.14 1052.96C438.033 1045.63 474.518 1050.91 514.731 1056.76L514.871 1056.78C550.943 1061.99 589.948 1067.63 646.312 1065.96L819.478 1060.74C832.904 1060.36 845.21 1062.79 854.222 1067.7L855.155 1068.32C860.997 1071.8 864.975 1076.4 865.721 1081.81C866.591 1088.15 863.856 1093.81 859.443 1098.47C851.736 1106.62 839.491 1112.15 828.055 1114.51L601.378 1160.89C588.574 1163.5 580.245 1176.06 582.856 1188.93ZM484.851 1383.51C472.406 1383.14 443.37 1381.98 410.884 1380.67C353.816 1378.37 286.102 1375.65 278.981 1376.12L260.584 1377.61L262.324 1390.11C264.997 1409.2 259.589 1427.66 248.837 1441.96C238.022 1456.2 221.738 1466.46 202.594 1469.13L129.065 1479.32C109.984 1482 91.5236 1476.59 77.2286 1465.83C62.933 1455.01 52.7391 1438.79 50.0675 1419.64L0.654128 1064.34C-1.95633 1045.25 3.38901 1026.79 14.1417 1012.49C24.9567 998.251 41.2407 987.992 60.3219 985.32L133.851 975.124C152.932 972.451 171.393 977.86 185.688 988.616C199.983 999.433 210.177 1015.72 212.849 1034.81L215.956 1057.19C244.128 1051.01 267.143 1041.7 289.149 1032.79L289.547 1032.63C317.207 1021.38 343.683 1010.62 378.616 1005.77C438.218 997.459 477.707 1003.2 521.229 1009.52L521.51 1009.56L521.754 1009.6C556.059 1014.56 593.235 1019.94 645.01 1018.39L818.176 1013.17C840.117 1012.55 861.311 1017.09 877.783 1026.41L879.399 1027.28C897.423 1037.91 909.979 1054.08 912.9 1075.22L913.211 1077.58L1159.52 958.026C1176.18 949.881 1192.71 947.208 1208.75 949.197C1225.35 951.249 1241.01 958.274 1255.61 969.278C1257.85 970.957 1259.72 973.009 1261.15 975.184L1262.39 976.925C1273.27 992.406 1277.55 1011.31 1275.5 1029.15C1273.39 1047.55 1264.5 1065.08 1248.9 1077.14C1159.52 1140.06 1069.71 1202.53 979.913 1264.98C936.711 1295.03 893.511 1325.08 850.364 1355.17C828.547 1370.47 795.233 1384.58 759.494 1393.6C726.987 1401.8 691.932 1406.03 660.979 1403.36L660.358 1403.29C634.998 1401.12 608.397 1398.57 582.167 1395.9L484.853 1383.51L484.851 1383.51ZM65.7819 1032.81L140.429 1022.37L140.492 1022.43C146.583 1021.56 152.488 1023.3 157.088 1026.78C161.687 1030.2 164.981 1035.43 165.789 1041.46L215.203 1396.76C216.073 1402.73 214.333 1408.7 210.852 1413.3C207.371 1417.83 202.15 1421.19 196.121 1422L122.592 1432.2C116.563 1433.07 110.596 1431.33 105.996 1427.84C101.397 1424.42 98.1028 1419.2 97.2948 1413.17L47.8814 1057.87C47.0113 1051.84 48.7516 1045.93 52.2322 1041.33C55.4642 1037.04 60.2501 1033.87 65.7819 1032.81Z" fill="black"/>
<path fill-rule="evenodd" clip-rule="evenodd" d="M723.53 381.937C731.248 373.308 738.981 364.661 746.172 355.97L745.87 355.846H847.741L849.978 358.395C950.789 458.171 1013.25 554.664 1040.73 638.718C1055.58 684.29 1060.06 726.006 1054.65 762.251C1049.49 796.943 1035.01 826.722 1011.95 850.036C992.557 869.682 966.763 885.101 935.002 895.483C892.984 909.161 848.793 915.253 804.227 915.253C754.814 915.253 705.028 907.793 657.294 895.111C618.321 884.729 587.245 870.74 564.31 853.27C541.313 835.799 526.271 814.475 519.31 789.545C512.038 763.558 513.095 732.907 522.48 697.719C538.702 636.555 611.669 513.363 676.87 427.568C691.559 415.559 704.772 403.251 708.444 398.991C713.359 393.309 718.441 387.627 723.53 381.937ZM627.695 416.554C559.235 507.072 494.185 619.043 476.487 685.597C464.926 729.053 463.931 767.974 473.503 802.229C483.322 837.417 504.082 867.135 535.657 891.133C563.688 912.518 600.298 929.181 645.297 941.18C697.01 954.919 750.898 963.002 804.351 963.002C853.577 963.002 902.68 956.225 949.854 940.807C989.011 928.063 1021.14 908.603 1045.82 883.673C1076.27 852.96 1095.23 814.104 1101.95 769.217C1108.47 725.821 1103.37 676.769 1086.16 624.048C1058.44 539.058 998.585 443.437 903.986 345.269C906.783 343.341 909.394 341.103 911.756 338.741C922.384 328.171 928.972 313.499 928.972 297.335C928.972 281.231 922.384 266.559 911.756 255.928C906.472 250.644 900.256 246.416 893.295 243.432L940.47 30.1298C941.402 26.7725 941.588 23.1044 940.905 19.4363C938.481 6.50498 926.05 -2.0123 913.121 0.412297L766.934 28.2027C754.316 31.6214 746.858 44.7396 750.276 57.3602L757.175 82.3527L689.861 78.8711C687.189 78.6846 684.454 78.9333 681.719 79.6793C669.101 83.2237 661.704 96.404 665.247 109.025L702.229 240.889C692.532 243.687 683.83 248.909 676.869 255.935C666.303 266.566 659.715 281.177 659.715 297.279C659.715 312.572 665.682 326.561 675.316 337.006L676.87 338.747C680.599 342.477 684.825 345.71 689.425 348.321L630.784 412.8C630.366 413.138 629.882 413.666 629.321 414.409C628.746 415.076 628.203 415.793 627.695 416.554ZM831.123 616.389C844.176 614.709 853.312 602.773 851.634 589.717L851.759 589.717C849.832 574.858 842.933 561.554 832.926 551.545C826.462 545.141 818.692 540.043 809.991 536.686V525.868C809.991 512.688 799.3 501.995 786.123 501.995C772.947 501.995 762.256 512.688 762.256 525.868V536.81C759.148 537.991 756.103 539.483 753.182 541.162C740.937 548.249 730.93 559.316 725.274 573.18C718.997 588.411 718.313 604.949 728.009 622.108C735.841 635.91 750.634 649.463 775.62 661.835C791.22 669.543 799.486 676.32 802.843 682.226L803.154 682.786C804.148 685.024 803.962 687.386 803.029 689.624C801.475 693.479 798.616 696.588 795.198 698.577C791.779 700.567 787.677 701.437 783.575 700.94C779.473 700.442 775.681 698.515 772.946 695.655C770.087 692.795 768.098 689.127 767.601 685.086C765.922 672.03 753.989 662.891 740.936 664.569C727.883 666.248 718.747 678.185 720.425 691.241C722.352 706.224 729.251 719.466 739.258 729.413C745.659 735.816 753.491 740.914 762.193 744.272V755.089C762.193 768.27 772.883 778.963 786.06 778.963C799.237 778.963 809.927 768.27 809.927 755.089V744.147C813.035 742.966 816.081 741.474 819.002 739.795C831.184 732.708 841.191 721.58 846.909 707.654C852.938 692.92 853.746 677.005 844.983 660.467L844.113 658.726C836.343 645.048 821.488 631.495 796.502 619.123C780.902 611.352 772.573 604.576 769.279 598.794C767.911 596.369 768.098 593.758 769.092 591.271C770.646 587.479 773.443 584.37 776.862 582.381C780.28 580.391 784.382 579.521 788.484 580.018C792.649 580.578 796.44 582.505 799.237 585.303C801.972 588.1 803.961 591.768 804.458 595.872C806.137 608.928 818.07 618.067 831.123 616.389ZM718.313 286.51H870.467L870.529 286.51C873.451 286.51 876.186 287.754 878.174 289.743C880.163 291.733 881.406 294.468 881.406 297.39C881.406 300.312 880.163 303.048 878.174 305.037C876.248 307.027 873.513 308.27 870.529 308.27H718.375C715.454 308.27 712.719 307.027 710.73 305.037L710.046 304.415C708.43 302.55 707.498 300.063 707.498 297.39C707.498 294.406 708.679 291.67 710.668 289.743C712.657 287.754 715.392 286.51 718.313 286.51ZM751.13 238.763L720.116 128.162L720.177 128.166L770.647 130.777H791.833L803.091 69.7256L886.689 53.9342L845.792 238.763H751.13Z" fill="#0553AE"/>
</g>
<defs>
<clipPath id="clip0_887_13680">
<rect width="1276" height="1480" fill="white"/>
</clipPath>
</defs>
</svg>
