<svg width="1508" height="1480" viewBox="0 0 1508 1480" fill="none" xmlns="http://www.w3.org/2000/svg">
<path d="M1074.59 433.743L1032.98 87.104C1026.96 37.5843 984.943 0.31543 935.003 0.31543H572.935C522.995 0.31543 480.975 37.5843 474.963 87.104L433.346 433.743C354.216 516.025 310 625.745 310 739.926C310 854.107 354.218 963.835 433.346 1046.11L474.905 1392.75C480.858 1442.33 522.995 1479.59 572.935 1479.54H935.003C984.943 1479.54 1026.96 1442.27 1032.98 1392.75L1074.59 1046.11C1153.72 963.827 1197.94 854.107 1197.94 739.926C1197.94 625.745 1153.72 516.017 1074.59 433.743ZM523.922 93.006C526.985 68.2173 547.967 49.6118 572.937 49.6118H935.004C959.974 49.6118 980.956 68.2173 984.019 93.006L1018.99 384.752H1018.93C942.576 327.259 849.58 296.172 753.976 296.172C658.373 296.172 565.374 327.259 489.021 384.752L523.922 93.006ZM753.97 345.449C858.647 345.449 958.983 387.052 1032.97 461.013C1106.95 534.973 1148.57 635.279 1148.57 739.919C1148.57 844.558 1106.95 944.864 1032.97 1018.82C958.983 1092.79 858.644 1134.39 753.97 1134.39C649.296 1134.39 548.958 1092.79 474.973 1018.82C400.988 944.864 359.372 844.558 359.372 739.919C359.487 635.334 401.104 535.077 475.089 461.116C549.074 387.155 649.353 345.552 753.982 345.437L753.97 345.449ZM984.019 1386.85C980.956 1411.63 959.974 1430.24 935.004 1430.24H572.937C547.967 1430.24 526.985 1411.63 523.922 1386.85L489.01 1095.1C565.365 1152.59 658.361 1183.68 753.964 1183.68C849.568 1183.68 942.567 1152.59 1018.92 1095.1L984.019 1386.85Z" fill="#0553AE"/>
<path d="M732.081 743.872C733.854 756.17 744.417 765.268 756.857 765.108L900.625 762.673C914.121 762.188 924.681 751.068 924.455 737.594C924.2 724.17 913.222 713.363 899.808 713.363L777.894 715.399L742.332 458.619C740.198 445.445 727.849 436.317 714.585 438.136C701.292 440.006 691.967 452.105 693.498 465.399L732.081 743.872Z" fill="black"/>
</svg>
