<svg width="1997" height="2411" viewBox="0 0 1997 2411" fill="none" xmlns="http://www.w3.org/2000/svg">
<path d="M1080 7.72412C868.813 46.0626 752.002 97.676 631.5 268C609.975 309.176 603.381 335.806 582.081 392.448C582.081 392.448 570.348 427.03 564.5 445.224C549.963 490.732 549.796 486.389 542.621 582.397C542.209 587.914 541.288 593.428 539.859 598.773C522.581 663.396 508.592 707.625 503.599 724.479C489.953 769.316 490.603 775.164 520.494 843.393L547.135 904.475L542.587 994.148C539.988 1053.28 540.638 1095.52 545.836 1118.91C552.984 1155.95 632.26 1384.68 669.299 1477.6C680.995 1506.19 690.093 1535.79 704.388 1576.72C718.684 1617.66 717.524 1693.34 728.571 1710.23C748.065 1740.77 795.104 1748.07 828.894 1755.86C842.54 1758.46 870.088 1764.31 873.337 1783.8C879.186 1819.54 877.236 1972.75 870.738 2007.19C866.19 2028.64 865.54 2020.84 868.139 1976C870.738 1935.07 869.439 1916.22 864.24 1916.22C851.244 1916.22 777.166 1956.51 692.042 2010.44C645.906 2039.68 588.723 2074.12 565.33 2087.12C515.945 2113.76 373.638 2175.49 259.272 2219.03C159.202 2256.72 122.813 2274.91 79.926 2307.4C46.7859 2332.75 0 2386.68 0 2399.68C0 2403.57 9.09727 2395.13 20.7937 2380.83C81.8754 2304.8 118.914 2282.06 290.463 2215.78C467.21 2148.2 564.03 2101.42 679.046 2028.64C784.964 1962.36 837.598 1933.12 842.147 1937.01C843.446 1938.31 841.497 1951.31 837.598 1965.61C823.303 2016.94 844.746 2098.82 885.684 2147.55C927.921 2196.94 1026.69 2230.73 1130.66 2230.08C1240.48 2230.08 1339.9 2200.84 1451.01 2137.15C1508.85 2104.66 1694.04 1966.91 1690.79 1959.11C1689.49 1956.51 1713.53 1928.57 1744.08 1896.73C1776.57 1862.94 1799.96 1833.05 1799.96 1825.9C1799.96 1818.75 1786.96 1792.11 1770.72 1766.77C1735.63 1712.83 1713.53 1658.25 1698.59 1584.17C1676.31 1480.21 1691.16 1209.74 1719.19 1141.85C1721.68 1135.83 1724.65 1130.15 1727.06 1124.09C1743.99 1081.65 1751.55 1076.44 1765.55 1044.18C1788.95 990.249 1846.89 877.183 1846.89 834.296C1847.54 787.51 1847.39 740.724 1822.05 726.429C1805.81 717.981 1812.65 717.812 1818.5 676.224C1821.1 652.831 1832.5 585.605 1832.5 523.224C1832.5 462.724 1832.5 474.224 1819.11 408.224C1754 245.724 1695.05 173.429 1522.85 88.3049C1388.99 22.0248 1217.76 -17.6183 1080 7.72412ZM1268.13 23.3245C1353.9 33.7213 1440.33 59.7134 1518.31 97.4021C1602.78 138.34 1646.76 176.029 1705.25 239.06C1805.52 375.724 1844.15 425.433 1822.05 619.724C1811.66 713.296 1799.96 710.833 1756.42 711.483C1682.34 712.133 1630.36 755.67 1597.22 842.094C1579.68 888.23 1574.05 892.8 1563 891.5C1550.65 889.551 1550.13 880.5 1546 833C1539.5 758.272 1577.94 665.997 1562.35 640.005C1553.9 625.709 1530.51 609.464 1479.82 582.822C1440.19 562.028 1399.5 537.5 1399.5 537.5C1399.5 537.5 1384.95 533.724 1384.95 487.32C1384.95 367.756 1460.89 188.168 1418 166.724C1369.91 142.681 1055 255.213 818 294.5C804 294.5 808 282.224 752.836 273.713C705 266.333 667.5 277.324 631.5 308.5L614 334.224L615.727 326.709C615.727 326.709 622.755 308.515 639 277.324C791.5 70.5 1012.76 -7.86616 1268.13 23.3245ZM1372.61 191C1418 183.255 1409 207.5 1411 215.5C1402 255.5 1372.61 371.08 1372.61 470.5C1372.61 569.92 1372.73 541.366 1471.5 594C1525.43 622.591 1542.4 635.554 1551.5 650.5C1564.5 673.243 1529.64 769.316 1536.79 844.043C1541.99 898.627 1559 905.125 1568.63 905.125C1574.5 905.125 1584.22 903.825 1604.37 848.592C1625.16 792.709 1635 785 1677.8 743.973V743.973C1681.93 741.465 1686.43 746.638 1683.36 750.384L1681.69 752.421C1655.05 783.611 1659.6 792.059 1688.19 765.417C1725.23 729.678 1742.13 720.58 1769.42 720.58C1824 720.58 1838.44 763.467 1838.44 831.697C1838.44 874.584 1775.3 1004.54 1752.56 1048.73C1710.97 1131.26 1682.74 1200.52 1640.5 1173.22C1605.02 1108.72 1599.17 1138.4 1576.43 1280.06C1564.73 1354.14 1521.24 1408.72 1492 1450.96C1333 1576.72 1213.84 1649.19 1063.73 1701.82C1001.35 1723.26 878.929 1759.76 826.944 1744.17C782.758 1731.82 742.867 1729.51 728.571 1689.22C722.723 1673.63 724.532 1602.37 704.388 1549.08C638.108 1372.98 564.68 1159.85 555.583 1118.26C549.085 1088.37 547.785 1050.03 550.385 985.051L554.283 892.779L533.49 847.292C522.443 822.6 514.645 798.557 515.945 794.008C520.494 782.312 597.82 782.962 656.953 795.308C688.793 802.456 705.688 803.106 711.536 798.557C721.283 790.759 751.824 833.646 757.672 862.888C762.221 883.681 753.773 890.829 718.034 898.627C697.89 903.175 697.89 902.526 698.54 876.533C698.54 862.238 700.489 850.541 703.089 850.541C705.038 850.541 716.735 858.339 727.781 867.436C749.225 885.631 757.022 885.631 749.875 867.436C745.326 854.44 708.287 834.946 677.096 827.798C643.956 820.65 605.618 830.397 580.925 851.841C543.886 884.331 552.334 901.876 611.466 914.872C639.408 920.72 717.384 911.623 749.875 898.627C761.571 894.078 762.221 896.028 758.322 923.319C755.723 940.214 739.478 998.047 721.283 1051.98C703.738 1106.56 668.793 1166.6 668.793 1173.1C668.793 1208.84 725.832 1221.98 779.116 1233.67L801.209 1238.22L796.661 1282.01C794.711 1300.21 792.762 1322.95 792.762 1332.05C792.762 1345.04 787.563 1351.54 768.719 1359.99C702.439 1389.88 688.793 1403.53 718.684 1408.07C727.131 1409.37 734.929 1418.47 740.128 1432.12C749.225 1458.76 772.618 1462.25 806.408 1472.65C829.151 1479.15 830.45 1480.45 820.053 1488.24C809.657 1496.04 809.657 1497.34 820.703 1508.39C841.497 1529.18 935.069 1518.14 927.271 1495.39C925.972 1490.84 914.925 1484.35 902.579 1479.8C885.684 1473.95 883.734 1472 894.781 1472C923.372 1470.7 981.855 1460.06 1029.94 1424.97C1089.72 1382.73 1103.37 1346.93 1111.17 1352.13C1115.06 1354.08 1117.66 1351.48 1117.66 1346.28C1117.66 1331.99 1093.62 1308.72 1093.62 1337.19C1079.98 1348.23 1016.94 1374.28 959.761 1360.64C905.828 1348.29 860.991 1346.34 848.645 1356.74C838.248 1365.84 809.007 1356.74 804.458 1343.09C803.159 1338.54 803.159 1315.15 804.458 1290.46C807.707 1235.23 820.053 1231.98 835.649 1283.31C844.746 1311.9 846.046 1322.95 840.197 1338.54C836.299 1348.94 834.999 1357.39 838.248 1357.39C853.843 1357.39 855.143 1296.7 840.847 1259.02C831.1 1233.67 828.501 1231.07 800.559 1227.18C763.52 1221.98 725.5 1202.22 694 1187.22C662.5 1172.22 699.19 1143.6 719.984 1086.42C730.38 1058.48 746.626 1005.19 756.373 968.156C778.466 885.631 775.867 857.039 744.026 815.452C731.68 799.207 717.384 777.113 711.536 766.067C695.291 734.876 664.75 725.129 583.525 724.479C544.536 723.829 513.346 722.53 513.346 720.58C513.346 718.631 516.595 705.635 519.844 691.339C523.093 677.043 548.941 622.46 552.84 569.176C562.587 437.265 630.5 320.5 651.5 308.5C660.597 303.302 663.72 285.3 730 284C788.482 282.7 776.5 318.743 818 313.724C957.708 296.829 1138.15 231 1372.61 191ZM627.061 733.576C683.594 742.024 701.789 753.071 701.789 779.713C701.789 795.958 699.84 798.557 689.443 795.308C660.851 786.211 586.124 772.565 564.03 772.565C551.034 772.565 532.84 775.164 523.743 779.063C508.147 784.911 506.848 784.261 506.848 766.067C506.848 729.028 537.388 721.23 627.061 733.576ZM660.851 834.946C658.902 836.895 653.054 837.545 648.505 835.596C643.307 833.646 645.256 831.697 652.404 831.697C659.552 831.047 663.451 832.997 660.851 834.946ZM634.859 841.444C632.91 843.393 627.062 844.043 622.513 842.094C617.314 840.144 619.264 838.195 626.412 838.195C633.56 837.545 637.458 839.495 634.859 841.444ZM610.167 845.343C608.867 846.643 597.82 855.74 586.124 866.137C575.077 877.183 565.33 883.031 565.33 880.432C565.33 873.934 598.47 844.043 606.268 844.043C610.167 844.043 611.466 844.693 610.167 845.343ZM652.404 850.541H666.5V850.541C674.04 850.989 681.763 853.125 686.2 859.237C687.139 860.53 688.031 861.967 688.793 863.537C692.586 871.35 692.692 879.782 679.696 892.779C666.05 906.424 658.902 908.374 630.31 906.424C591.322 903.825 578.326 894.728 588.723 878.483C599.77 860.288 607.567 862.238 616.015 884.331C619.914 895.378 625.401 910.174 628 908.224C629.949 905.625 627.711 890.829 623.812 883.031C615.365 866.786 624.462 850.541 642.657 850.541C651.754 850.541 652.404 850.541 652.404 850.541ZM1664.8 1199.44C1694.04 1199.44 1695.99 1176.74 1692.74 1189.74C1674.55 1270.32 1671.3 1480.2 1686.24 1567.28C1699.24 1643.3 1727.83 1718.68 1764.22 1773.26C1784.36 1803.8 1792.81 1822.65 1790.21 1831.1C1784.36 1849.29 1630.36 1997.45 1562.13 2050.08C1410.73 2167.05 1272.32 2221.63 1128.71 2221.63C990.952 2221.63 886.334 2166.4 853.193 2076.72C845.396 2054.63 842.147 1968.21 848.645 1943.51C857.092 1912.32 861.641 1931.82 859.042 1987.7C854.493 2079.97 879.836 2124.81 959.761 2165.75C985.754 2178.74 1053.33 2202.14 1065.03 2202.14C1076.08 2202.14 1050.73 2189.14 1020.19 2179.39C947.415 2156 896.081 2119.61 879.186 2080.62C872.688 2063.73 872.038 2053.33 878.536 2028.64C882.435 2011.09 885.684 1950.66 885.684 1892.18V1767.56L928 1759.22C1021.5 1744.72 1055 1733.72 1125 1704.72C1305 1588.72 1276.96 1622.59 1517 1452.72C1545.59 1407.89 1590.07 1343.09 1605.02 1248.87C1612.17 1205.33 1618.01 1167 1618.01 1164.4C1618.01 1157.32 1622.37 1182.59 1632.5 1192.72C1637.05 1197.27 1647.9 1199.44 1664.8 1199.44ZM946.765 1367.14C970.808 1372.98 998.1 1378.83 1007.2 1381.43C1017.59 1384.03 992.252 1389.23 938.968 1395.08C840.847 1406.12 842.797 1405.47 781.065 1399.63C731.03 1394.43 727.131 1386.63 767.419 1369.74C783.664 1363.24 792.112 1363.24 809.657 1369.74C827.201 1376.23 834.349 1375.58 849.295 1367.79C872.688 1355.44 892.182 1354.79 946.765 1367.14ZM1023.44 1419.12C964.96 1460.71 925.322 1459.65 864.24 1463.55C820.053 1466.15 803.808 1464.2 787.563 1455.75C768.719 1446.01 740.777 1427.57 740.777 1414.57C740.777 1412.62 775.217 1410.67 817.454 1410.67C859.042 1411.32 920.123 1408.72 951.964 1404.82C984.454 1400.93 1020.84 1397.68 1033.19 1397.03L1055.93 1396.38L1023.44 1419.12ZM869.439 1482.4C862.941 1483.7 852.544 1483.7 846.695 1482.4C840.197 1480.45 845.396 1479.15 857.742 1479.15C870.088 1479.15 875.287 1480.45 869.439 1482.4ZM909.727 1496.69C909.727 1499.94 902.579 1504.49 893.481 1506.44C875.287 1510.99 823.952 1504.49 827.851 1497.99C831.75 1491.49 909.727 1490.19 909.727 1496.69Z" fill="#000087"/>
<path d="M1029.94 678.993C955.213 692.639 903.929 719.935 887.684 730.981C875 739.607 866.19 758.919 883.085 779.713C883.085 779.713 888 787.724 906.5 787.724C925 787.724 981.855 766.717 981.855 766.717C1158.5 715.224 1166.4 755.129 1252.82 773.324C1282.71 779.172 1328.71 792.421 1331.31 789.822C1337.8 783.974 1303.49 690.968 1258 668.224C1222.91 650.68 1202.19 653.403 1148 657.225C1148 657.225 1058.53 673.145 1029.94 678.993ZM1236.5 678.993C1258 683.185 1296 699.724 1305.37 734.48C1324.21 780.725 1308.1 776.573 1292.5 773.324C1240.52 760.978 1188.44 727.874 1134.5 727.224C1087.71 731.773 999.4 748.522 952.614 766.717C907.128 783.612 891.532 782.962 882.435 762.168C876.335 748.224 888.933 716.682 1000.7 694.588C1113.77 671.845 1169.87 666.002 1236.5 678.993Z" fill="#000087"/>
<path d="M1054.63 797.907C1026.69 805.055 990.302 833.647 977.956 857.689C964.96 882.382 974.707 882.382 989.003 857.04C999.4 838.845 1035.79 811.553 1049.43 811.553C1053.33 811.553 1046.84 816.752 1036.44 823.9C1016.29 835.596 981.205 873.285 981.205 882.382C981.205 884.981 1016.94 886.931 1061.13 886.281C1127.41 885.631 1147.56 882.382 1182.64 869.386C1208.64 859.639 1224.88 849.892 1224.88 844.043C1224.88 838.845 1208.64 826.499 1189.14 816.752C1150.15 797.258 1090.37 788.81 1054.63 797.907ZM1175.5 818.701C1193.69 826.499 1207.99 834.296 1206.69 835.596C1205.39 836.896 1193.04 832.997 1178.75 826.499C1165.1 820.651 1131.31 814.152 1104.67 811.553L1055.93 807.005L1098.82 806.355C1130.01 805.055 1151.45 808.954 1175.5 818.701ZM1122.86 821.95C1139.76 826.499 1141.06 841.444 1126.76 862.238C1112.47 883.032 1079.33 879.783 1066.33 855.74C1049.43 825.849 1076.73 809.604 1122.86 821.95ZM1201.49 847.293C1205.39 851.841 1156.65 871.335 1147.56 868.736C1141.71 867.436 1141.06 860.938 1144.96 845.343L1150.8 824.549L1174.2 834.296C1187.19 840.145 1199.54 845.993 1201.49 847.293ZM1054.63 845.343C1055.93 853.791 1059.18 864.837 1061.78 870.685C1065.03 878.483 1061.78 879.783 1041.64 877.833C998.75 873.935 996.8 871.335 1016.94 850.542C1039.04 827.149 1050.08 825.849 1054.63 845.343Z" fill="#000087"/>
<path d="M935.718 1110.21C935.718 1112.81 941.567 1121.91 948.715 1131C964.96 1151.8 965.609 1172.59 950.664 1190.14C938.318 1203.78 898.68 1216.78 906.477 1204.43C922.073 1179.09 846.695 1167.39 818.104 1190.79C803.808 1202.48 803.808 1203.13 816.154 1209.63C834.999 1219.38 929.22 1217.43 950.014 1207.03C974.057 1194.68 980.555 1160.25 963.66 1132.3C952.613 1112.81 935.718 1099.81 935.718 1110.21ZM889.582 1192.09C895.431 1192.74 886.983 1195.33 870.738 1197.93C839.547 1203.13 829.151 1207.18 835.649 1196.14C838.248 1192.89 848.645 1191.59 859.042 1193.54C870.088 1195.49 883.734 1192.09 889.582 1192.09Z" fill="#000087"/>
<path d="M1805.81 1833.05C1798.01 1844.74 1769.42 1877.23 1742.13 1904.52C1715.48 1932.47 1695.99 1955.21 1699.24 1955.21C1707.69 1955.21 1793.46 1868.14 1812.31 1840.19C1825.3 1821.35 1828.55 1819.4 1840.9 1826.55C1861.69 1837.59 1973.46 1920.77 1978.66 1928.57C1980.6 1932.47 1968.26 1952.61 1950.71 1973.4C1914.32 2014.99 1618.01 2401.63 1618.01 2406.82C1618.01 2425.67 1682.99 2367.19 1747.97 2289.86C1789.56 2239.82 1937.72 2042.93 1980.6 1979.25C1992.3 1962.36 1998.8 1948.71 1994.9 1948.71C1991.65 1948.71 1988.4 1943.51 1988.4 1937.01C1988.4 1930.52 1981.9 1918.82 1974.11 1911.67C1944.87 1885.68 1838.95 1812.25 1829.85 1812.25C1824.65 1812.25 1813.6 1822 1805.81 1833.05ZM1984.5 1956.51C1942.27 2027.34 1749.92 2277.51 1694.04 2334.7C1660.9 2368.49 1650.5 2376.93 1664.8 2358.09C1677.15 2341.84 1740.83 2258.67 1806.46 2172.89C1922.12 2021.49 1980.6 1948.71 1986.45 1948.71C1987.75 1948.71 1987.1 1952.61 1984.5 1956.51Z" fill="#000087"/>
</svg>
